<svg xmlns="http://www.w3.org/2000/svg" xmlns:xlink="http://www.w3.org/1999/xlink" preserveAspectRatio="xMidYMid" version="1.1" viewBox="-0.0 -0.0 256.0 292.6" zoomAndPan="magnify" style="fill: rgb(0, 0, 0);" original_string_length="1591"><g id="__id112_sfn1e3b2d"><path d="m226.01 0h-196.02c-16.532 0-29.99 13.458-29.99 30.135v197.78c0 16.67 13.458 30.13 29.989 30.13h165.89l-7.76-27.06 18.73 17.4 17.7 16.39 31.45 27.79v-262.44c0-16.672-13.46-30.13-29.99-30.13zm-56.46 191.05s-5.27-6.29-9.66-11.85c19.16-5.41 26.48-17.41 26.48-17.41-6 3.95-11.7 6.73-16.82 8.63-7.32 3.07-14.34 5.12-21.22 6.29-14.04 2.64-26.91 1.9-37.88-0.14-8.34-1.61-15.511-3.95-21.508-6.29-3.365-1.32-7.022-2.93-10.679-4.98-0.439-0.29-0.878-0.44-1.317-0.73-0.292-0.14-0.439-0.29-0.585-0.44-2.633-1.46-4.096-2.48-4.096-2.48s7.022 11.7 25.6 17.26c-4.388 5.56-9.801 12.14-9.801 12.14-32.329-1.02-44.617-22.24-44.617-22.24 0-47.1 21.065-85.281 21.065-85.281 21.065-15.799 41.108-15.36 41.108-15.36l1.46 1.756c-26.33 7.606-38.472 19.163-38.472 19.163s3.218-1.755 8.631-4.242c15.652-6.876 28.091-8.777 33.211-9.216 0.87-0.147 1.6-0.293 2.48-0.293 8.93-1.17 19.02-1.463 29.55-0.292 13.9 1.609 28.82 5.705 44.03 14.043 0 0-11.55-10.971-36.42-18.578l2.05-2.341s20.04-0.439 41.1 15.36c0 0 21.07 38.181 21.07 85.281 0 0-12.44 21.22-44.76 22.24zm-68.03-68.32c-8.336 0-14.919 7.32-14.919 16.24s6.729 16.24 14.919 16.24c8.34 0 14.92-7.32 14.92-16.24 0.15-8.92-6.58-16.24-14.92-16.24m53.4 0c-8.34 0-14.92 7.32-14.92 16.24s6.72 16.24 14.92 16.24c8.33 0 14.92-7.32 14.92-16.24s-6.59-16.24-14.92-16.24" style="fill: rgb(255, 255, 255);"/></g></svg>